<svg width="50" height="50" viewBox="0 0 50 50" fill="none" xmlns="http://www.w3.org/2000/svg">
<rect width="50" height="50" rx="25" fill="white"/>
<path d="M32.5915 13.1579L35.936 16.4737L27.3336 23.4211L25.7781 21.8421L32.576 13.1579H32.5915ZM32.5915 10C31.6893 10 30.8026 10.3789 30.1804 11.1368L21.578 22.0789L27.0848 27.6684L37.8805 18.9526C39.2805 17.7526 39.3894 15.5895 38.0827 14.2632L34.8005 10.9316C34.1782 10.3 33.3849 10 32.5915 10ZM20.4891 23.2L19.3846 24.3211C18.7779 24.9368 18.7779 25.9316 19.3846 26.5789L22.6669 29.8947C22.9936 30.2105 23.3825 30.3526 23.7869 30.3526C24.1914 30.3526 24.5803 30.2105 24.8914 29.8947L25.9803 28.7895L20.4891 23.2ZM15.6668 30.5263C14.8112 30.5263 14.1112 31.2368 14.1112 32.1053C14.1112 32.9737 14.8112 33.6842 15.6668 33.6842C16.5223 33.6842 17.2223 32.9737 17.2223 32.1053C17.2223 31.2368 16.5223 30.5263 15.6668 30.5263ZM20.3335 32.1053C19.4779 32.1053 18.7779 32.8158 18.7779 33.6842C18.7779 34.5526 19.4779 35.2632 20.3335 35.2632C21.1891 35.2632 21.8891 34.5526 21.8891 33.6842C21.8891 32.8158 21.1891 32.1053 20.3335 32.1053ZM12.5556 35.2632C11.7 35.2632 11 35.9737 11 36.8421C11 37.7105 11.7 38.4211 12.5556 38.4211C13.4112 38.4211 14.1112 37.7105 14.1112 36.8421C14.1112 35.9737 13.4112 35.2632 12.5556 35.2632ZM17.2223 36.8421C16.3668 36.8421 15.6668 37.5526 15.6668 38.4211C15.6668 39.2895 16.3668 40 17.2223 40C18.0779 40 18.7779 39.2895 18.7779 38.4211C18.7779 37.5526 18.0779 36.8421 17.2223 36.8421Z" fill="#E07B39"/>
</svg>
