<svg width="50" height="50" viewBox="0 0 50 50" fill="none" xmlns="http://www.w3.org/2000/svg">
<rect width="50" height="50" rx="25" fill="white"/>
<g clip-path="url(#clip0_5_136)">
<path d="M35.0957 10.1758C35.7754 9.80078 36.6309 10.041 37.0059 10.7207L37.2871 11.2305C38.418 13.2637 38.4473 15.666 37.4863 17.6758C39.0508 19.3516 40 21.5957 40 24.0625C40 25.1465 39.8184 26.1895 39.4785 27.1563C39.1211 28.1699 37.8086 28.1113 37.3223 27.1504L36.6367 25.7793C36.3965 25.3047 35.9102 25 35.377 25H31.0938C30.3145 25 29.6875 24.3731 29.6875 23.5938V18.9063C29.6875 18.127 29.0605 17.5 28.2812 17.5H27.2793C26.0312 17.5 25.5215 16.0996 26.6465 15.5723C27.8535 15.0039 29.2012 14.6875 30.625 14.6875C32.2832 14.6875 33.8359 15.1152 35.1836 15.8711C35.5059 14.8047 35.4004 13.6211 34.832 12.6016L34.5508 12.0918C34.1758 11.4121 34.416 10.5566 35.0957 10.1816V10.1758ZM20.0312 30.2441L25.4688 19.375H27.8125V24.0625C27.8125 25.6152 29.0723 26.875 30.625 26.875H35.0898L36.4902 29.6758C31.8145 36.0098 24.3145 40 16.0469 40H12.6016C11.166 40 10 38.834 10 37.3984C10 36.1797 10.8496 35.125 12.0391 34.8613L14.957 34.2109C17.1602 33.7188 19.0293 32.2656 20.0371 30.2441H20.0312Z" fill="#E07B39"/>
</g>
<defs>
<clipPath id="clip0_5_136">
<path d="M10 10H40V40H10V10Z" fill="white"/>
</clipPath>
</defs>
</svg>
