<svg width="50" height="50" viewBox="0 0 50 50" fill="none" xmlns="http://www.w3.org/2000/svg">
<rect width="50" height="50" rx="25" fill="white"/>
<path d="M21.25 29.8751C18.625 29.6251 16.375 28.6251 15 27.0001C14 27.0001 13 26.3751 12.625 25.3751C12.25 24.3751 12.625 23.3751 13.5 22.7501C13.625 19.0001 17 15.1251 22.125 13.3751C27.25 11.6251 32.5 12.6251 35 15.5001C36 15.5001 37 16.1251 37.375 17.1251C37.75 18.1251 37.375 19.1251 36.5 19.7501C36.5 20.7501 36.25 21.7501 35.75 22.7501C34.25 21.8751 32.5 21.2501 30.625 21.2501C25.75 21.2501 21.625 25.0001 21.25 29.8751ZM37.5 30.6251C37.5 34.3751 34.375 37.5001 30.625 37.5001C26.875 37.5001 23.75 34.3751 23.75 30.6251C23.75 26.8751 26.875 23.7501 30.625 23.7501C34.375 23.7501 37.5 26.8751 37.5 30.6251ZM26.625 32.5001L29.5 30.6251L26.625 28.7501C26.375 29.3751 26.25 30.0001 26.25 30.6251C26.25 31.2501 26.375 31.8751 26.625 32.5001ZM30 31.7501L27.375 33.5001C28 34.2501 29 34.7501 30 35.0001V31.7501ZM30 26.3751C29 26.5001 28 27.0001 27.375 27.8751L30 29.6251V26.3751ZM31.25 29.5001L33.875 27.7501C33.25 27.0001 32.25 26.5001 31.25 26.2501V29.5001ZM33.875 33.5001L31.25 31.7501V34.8751C32.25 34.7501 33.25 34.2501 33.875 33.5001ZM35 30.6251C35 30.0001 34.875 29.3751 34.625 28.7501L31.75 30.6251L34.625 32.5001C34.875 31.8751 35 31.2501 35 30.6251Z" fill="#E07B39"/>
</svg>
