<svg width="50" height="50" viewBox="0 0 50 50" fill="none" xmlns="http://www.w3.org/2000/svg">
<rect width="50" height="50" rx="25" fill="white"/>
<g clip-path="url(#clip0_5_169)">
<path d="M39.5898 12.4023C40.1406 11.8516 40.1406 10.9609 39.5898 10.416C39.0391 9.8711 38.1484 9.86524 37.6035 10.416L32.4414 15.5664C31.8906 16.1172 31.8906 17.0078 32.4414 17.5527C32.9922 18.0977 33.8828 18.1035 34.4277 17.5527L39.584 12.3965L39.5898 12.4023ZM27.9004 11.5996C27.5371 11.2363 26.9395 11.2363 26.5762 11.5996L25.9082 12.2617C23.7109 14.459 23.7109 18.0215 25.9082 20.2188L26.5176 20.8281L24.7305 22.6152C24.5312 21.0156 23.8223 19.4629 22.5918 18.2324L21.9297 17.5703C21.5664 17.207 20.9688 17.207 20.6055 17.5703L19.9434 18.2324C17.7461 20.4297 17.7461 23.9922 19.9434 26.1895L20.5527 26.7988L18.7656 28.5859C18.5664 26.9863 17.8574 25.4336 16.627 24.2031L15.9648 23.5352C15.6016 23.1719 15.0039 23.1719 14.6406 23.5352L13.9785 24.1973C11.7812 26.3945 11.7812 29.957 13.9785 32.1543L14.5879 32.7637L10.5508 36.8008C9.81836 37.5332 9.81836 38.7227 10.5508 39.4551C11.2832 40.1875 12.4727 40.1875 13.2051 39.4551L17.2422 35.418L17.957 36.1328C20.1543 38.3301 23.7168 38.3301 25.9141 36.1328L26.5762 35.4707C26.9395 35.1074 26.9395 34.5098 26.5762 34.1465L25.9141 33.4844C24.6367 32.207 23.0078 31.4863 21.3379 31.3223L23.207 29.4531L23.9219 30.168C26.1191 32.3652 29.6816 32.3652 31.8789 30.168L32.541 29.5059C32.9043 29.1426 32.9043 28.5449 32.541 28.1816L31.8789 27.5195C30.6016 26.2422 28.9727 25.5215 27.3027 25.3574L29.1719 23.4883L29.8867 24.2031C32.084 26.4004 35.6465 26.4004 37.8438 24.2031L38.5059 23.5352C38.8691 23.1719 38.8691 22.5742 38.5059 22.2109L37.8438 21.543C37.5391 21.2383 37.2227 20.9688 36.8828 20.7285L39.5898 18.0273C40.1406 17.4766 40.1406 16.5859 39.5898 16.041C39.0391 15.4961 38.1484 15.4902 37.6035 16.041L34.123 19.5215C32.916 19.2637 31.6621 19.3047 30.4727 19.6445C30.8301 18.3965 30.8594 17.0781 30.5547 15.8184L33.9648 12.4023C34.5156 11.8516 34.5156 10.9609 33.9648 10.416C33.4141 9.8711 32.5234 9.86524 31.9785 10.416L29.2832 13.0996C29.0664 12.8066 28.8262 12.5254 28.5566 12.2617L27.9004 11.5996Z" fill="#E07B39"/>
</g>
<defs>
<clipPath id="clip0_5_169">
<path d="M10 10H40V40H10V10Z" fill="white"/>
</clipPath>
</defs>
</svg>
