<svg width="30" height="24" viewBox="0 0 30 24" fill="none" xmlns="http://www.w3.org/2000/svg">
<g clip-path="url(#clip0_5_80)">
<path d="M13.7578 0.178084C14.6812 1.01246 15.5484 1.91246 16.3594 2.88277C16.7297 2.41871 17.1469 1.91246 17.6016 1.49996C17.8641 1.2609 18.2766 1.2609 18.5391 1.49996C19.6969 2.56402 20.6766 3.97027 21.3703 5.30152C22.05 6.61402 22.5047 8.05777 22.5047 9.00465C22.5 13.125 19.1578 16.5 15 16.5C10.7953 16.5 7.5 13.1203 7.5 9.00933C7.5 7.77183 8.09531 6.16402 9.01875 4.66871C9.95625 3.14996 11.2734 1.57027 12.8344 0.178084C12.9656 0.0608961 13.1344 -4.14238e-05 13.3031 0.00464608C13.4672 0.00464608 13.6313 0.0655836 13.7625 0.182771L13.7578 0.178084ZM17.3438 12.7968C18.75 11.8125 19.125 9.84371 18.2812 8.29683C18.1875 8.10933 18.0938 7.92183 17.9531 7.73433L16.2656 9.70308C16.2656 9.70308 13.5469 6.23433 13.3594 5.99996C11.9531 7.73433 11.25 8.71871 11.25 9.84371C11.25 12.1406 12.9375 13.5 15.0469 13.5C15.8906 13.5 16.6406 13.2656 17.3438 12.7968ZM1.5 13.5C1.5 12.6703 2.17031 12 3 12H4.5C5.32969 12 6 12.6703 6 13.5C6 14.3296 5.32969 15 4.5 15V18H25.5V15C24.6703 15 24 14.3296 24 13.5C24 12.6703 24.6703 12 25.5 12H27C27.8297 12 28.5 12.6703 28.5 13.5V18C29.3297 18 30 18.6703 30 19.5V22.5C30 23.3296 29.3297 24 28.5 24H1.5C0.670312 24 0 23.3296 0 22.5V19.5C0 18.6703 0.670312 18 1.5 18V13.5ZM15 22.5C15.3978 22.5 15.7794 22.3419 16.0607 22.0606C16.342 21.7793 16.5 21.3978 16.5 21C16.5 20.6021 16.342 20.2206 16.0607 19.9393C15.7794 19.658 15.3978 19.5 15 19.5C14.6022 19.5 14.2206 19.658 13.9393 19.9393C13.658 20.2206 13.5 20.6021 13.5 21C13.5 21.3978 13.658 21.7793 13.9393 22.0606C14.2206 22.3419 14.6022 22.5 15 22.5ZM22.5 21C22.5 20.6021 22.342 20.2206 22.0607 19.9393C21.7794 19.658 21.3978 19.5 21 19.5C20.6022 19.5 20.2206 19.658 19.9393 19.9393C19.658 20.2206 19.5 20.6021 19.5 21C19.5 21.3978 19.658 21.7793 19.9393 22.0606C20.2206 22.3419 20.6022 22.5 21 22.5C21.3978 22.5 21.7794 22.3419 22.0607 22.0606C22.342 21.7793 22.5 21.3978 22.5 21ZM9 22.5C9.39782 22.5 9.77936 22.3419 10.0607 22.0606C10.342 21.7793 10.5 21.3978 10.5 21C10.5 20.6021 10.342 20.2206 10.0607 19.9393C9.77936 19.658 9.39782 19.5 9 19.5C8.60218 19.5 8.22064 19.658 7.93934 19.9393C7.65804 20.2206 7.5 20.6021 7.5 21C7.5 21.3978 7.65804 21.7793 7.93934 22.0606C8.22064 22.3419 8.60218 22.5 9 22.5Z" fill="#A05523"/>
</g>
<defs>
<clipPath id="clip0_5_80">
<path d="M0 0H30V24H0V0Z" fill="white"/>
</clipPath>
</defs>
</svg>
