<svg width="50" height="50" viewBox="0 0 50 50" fill="none" xmlns="http://www.w3.org/2000/svg">
<rect width="50" height="50" rx="25" fill="white"/>
<g clip-path="url(#clip0_5_158)">
<path d="M15.625 10C15.1035 10 14.6054 10.2168 14.2539 10.5977C13.9023 10.9785 13.7148 11.4883 13.7558 12.0098L15.4433 35.6465C15.6191 38.1016 17.6582 40 20.1191 40H29.8808C32.3418 40 34.3808 38.1016 34.5566 35.6465L36.2441 12.0098C36.2793 11.4883 36.1035 10.9785 35.746 10.5977C35.3886 10.2168 34.8964 10 34.375 10H15.625ZM18.0273 19.1699L17.6406 13.75H32.3593L31.9726 19.1699L30.5546 19.8789C29.4179 20.4473 28.082 20.4473 26.9453 19.8789C25.7207 19.2695 24.2793 19.2695 23.0546 19.8789C21.9179 20.4473 20.582 20.4473 19.4453 19.8789L18.0273 19.1699Z" fill="#E07B39"/>
</g>
<defs>
<clipPath id="clip0_5_158">
<path d="M13.75 10H36.25V40H13.75V10Z" fill="white"/>
</clipPath>
</defs>
</svg>
