<svg width="50" height="50" viewBox="0 0 50 50" fill="none" xmlns="http://www.w3.org/2000/svg">
<rect width="50" height="50" rx="25" fill="white"/>
<g clip-path="url(#clip0_5_114)">
<path d="M17.5 11.875C17.5 10.8379 18.3379 10 19.375 10H30.625C31.6621 10 32.5 10.8379 32.5 11.875C32.5 12.9121 31.6621 13.75 30.625 13.75H19.375C18.3379 13.75 17.5 12.9121 17.5 11.875ZM15.625 19.375C15.625 17.3066 17.3066 15.625 19.375 15.625H30.625C32.6934 15.625 34.375 17.3066 34.375 19.375V36.25C34.375 38.3184 32.6934 40 30.625 40H19.375C17.3066 40 15.625 38.3184 15.625 36.25V19.375ZM21.25 23.125C20.2129 23.125 19.375 23.9629 19.375 25V30.625C19.375 31.6621 20.2129 32.5 21.25 32.5H28.75C29.7871 32.5 30.625 31.6621 30.625 30.625V25C30.625 23.9629 29.7871 23.125 28.75 23.125H21.25Z" fill="#E07B39"/>
</g>
<defs>
<clipPath id="clip0_5_114">
<path d="M15.625 10H34.375V40H15.625V10Z" fill="white"/>
</clipPath>
</defs>
</svg>
