<svg width="50" height="50" viewBox="0 0 50 50" fill="none" xmlns="http://www.w3.org/2000/svg">
<rect width="50" height="50" rx="25" fill="white"/>
<path d="M36.25 30.625C36.25 31.1 35.9875 31.5125 35.5875 31.725L25.7125 37.275C25.5125 37.425 25.2625 37.5 25 37.5C24.7375 37.5 24.4875 37.425 24.2875 37.275L14.4125 31.725C14.0125 31.5125 13.75 31.1 13.75 30.625V19.375C13.75 18.9 14.0125 18.4875 14.4125 18.275L24.2875 12.725C24.4875 12.575 24.7375 12.5 25 12.5C25.2625 12.5 25.5125 12.575 25.7125 12.725L35.5875 18.275C35.9875 18.4875 36.25 18.9 36.25 19.375V30.625ZM25 15.1875L17.55 19.375L25 23.5625L32.45 19.375L25 15.1875ZM16.25 29.8875L23.75 34.1125V25.725L16.25 21.5125V29.8875ZM33.75 29.8875V21.5125L26.25 25.725V34.1125L33.75 29.8875Z" fill="#E07B39"/>
</svg>
